<svg width="20" height="18" viewBox="0 0 24 19" fill="none" xmlns="http://www.w3.org/2000/svg">
<path d="M20.25 18.25V8.82808C20.2483 8.72429 20.2259 8.62188 20.184 8.52688C20.1422 8.43189 20.0817 8.34623 20.0062 8.27496L12.5062 1.45933C12.368 1.33284 12.1874 1.2627 12 1.2627C11.8126 1.2627 11.632 1.33284 11.4937 1.45933L3.99375 8.27496C3.91828 8.34623 3.85783 8.43189 3.81597 8.52688C3.77411 8.62188 3.75168 8.72429 3.75 8.82808V18.25M1.5 18.25H22.5M14.25 18.25V13C14.25 12.8011 14.171 12.6103 14.0303 12.4697C13.8897 12.329 13.6989 12.25 13.5 12.25H10.5C10.3011 12.25 10.1103 12.329 9.96967 12.4697C9.82902 12.6103 9.75 12.8011 9.75 13V18.25" stroke="#4c4c4c" stroke-width="1.5" stroke-linecap="round" stroke-linejoin="round"/>
</svg>
