<svg xmlns="http://www.w3.org/2000/svg" xmlns:xlink="http://www.w3.org/1999/xlink" version="1.1" x="0px" y="0px" viewBox="0 0 64 80" style="enable-background:new 0 0 64 64;" xml:space="preserve"><g><path d="M36.62,22.8c-0.05,0.02-0.11,0.04-0.16,0.07L36.15,23c-0.15,0.06-0.29,0.13-0.44,0.18c-0.11,0.04-0.22,0.07-0.33,0.1   l-0.15,0.04c-0.31,0.1-0.54,0.17-0.77,0.22l-0.13,0.02c-1.72,0.36-3.02,0.35-4.6,0.01l-0.2-0.04c-0.23-0.05-0.46-0.13-0.69-0.2   l-0.23-0.07c-0.11-0.03-0.22-0.06-0.32-0.1C28.15,23.13,28,23.07,27.86,23l-0.32-0.13c-0.05-0.02-0.11-0.04-0.16-0.07   c-4.86,1.83-8.22,6.44-8.48,11.61h26.2C44.84,29.24,41.48,24.63,36.62,22.8z"/><path d="M32,46.64c0.27,0,0.48-0.22,0.48-0.48c0-0.27-0.22-0.48-0.48-0.48s-0.48,0.22-0.48,0.48C31.52,46.42,31.73,46.64,32,46.64z   "/><path d="M27.88,20.89c2.58,1.34,5.66,1.34,8.24,0c2.98-1.55,4.83-4.59,4.83-7.94C40.95,8.01,36.94,4,32,4s-8.95,4.02-8.95,8.95   C23.05,16.3,24.9,19.34,27.88,20.89z"/><path d="M50.48,55.96l1.55-16.21c0.08-0.87-0.21-1.74-0.79-2.39c-0.59-0.65-1.43-1.02-2.3-1.02H15.06c-0.87,0-1.71,0.37-2.3,1.02   c-0.59,0.65-0.88,1.52-0.79,2.39l1.55,16.21H50.48z M32,43.73c1.33,0,2.42,1.09,2.42,2.42c0,1.33-1.09,2.42-2.42,2.42   c-1.33,0-2.42-1.09-2.42-2.42C29.58,44.82,30.67,43.73,32,43.73z"/><rect x="10.83" y="58.07" width="42.34" height="1.94"/></g></svg>