<svg xmlns="http://www.w3.org/2000/svg" xmlns:xlink="http://www.w3.org/1999/xlink" version="1.1" x="0px" y="0px" viewBox="0 0 512 640" style="enable-background:new 0 0 512 512;" xml:space="preserve"><g><path d="M475.8,216.7l-42.9-4.1c-4.4-17.8-11.8-35.2-21.9-51.8l27.3-33c2.3-2.8,2.1-6.9-0.4-9.4l-45.6-45.6   c-2.6-2.6-6.6-2.7-9.4-0.4l-33,27.3c-15.8-9.8-33.5-17.3-51.8-21.8l-4.1-42.8c-0.3-3.6-3.4-6.3-7-6.3h-62.2c-3.6,0-6.6,2.7-7,6.3   l-4.1,42.8c-18.3,4.5-36,12-51.8,21.8l-33-27.3c-2.8-2.3-6.9-2.1-9.4,0.4L74,118.4c-2.6,2.6-2.7,6.6-0.4,9.4l27.3,33   c-10.1,16.6-17.4,33.9-21.9,51.8l-42.8,4.1c-3.6,0.3-6.3,3.4-6.3,7v64.6c0,3.6,2.7,6.6,6.3,7l42.8,4.1c4.5,18.3,12,36,21.8,51.8   l-27.3,33c-2.3,2.8-2.1,6.9,0.4,9.4l45.6,45.6c2.6,2.6,6.6,2.7,9.4,0.4l33-27.3c16.6,10.1,33.9,17.4,51.8,21.9l4.1,42.9   c0.3,3.6,3.4,6.3,7,6.3h62.2c3.6,0,6.6-2.7,7-6.3l4.1-42.9c17.8-4.4,35.2-11.8,51.8-21.9l33,27.3c2.8,2.3,6.9,2.1,9.4-0.4   l45.6-45.6c2.6-2.6,2.7-6.6,0.4-9.4l-27.3-33c9.8-15.8,17.3-33.5,21.8-51.8l42.8-4.1c3.6-0.3,6.3-3.4,6.3-7v-64.6   C482.1,220.1,479.4,217.1,475.8,216.7z M468.1,281.9l-41.5,4c-3,0.3-5.5,2.5-6.2,5.5c-4.3,20.1-12.6,39.6-23.8,56.4   c-1.7,2.6-1.5,6,0.4,8.3l26.5,32L387,424.7l-32-26.5c-2.4-1.9-5.7-2.1-8.3-0.5c-18,11.6-37,19.6-56.5,23.8c-3,0.6-5.2,3.1-5.5,6.2   l-4,41.5h-49.5l-4-41.5c-0.3-3-2.5-5.5-5.5-6.2c-19.5-4.2-38.5-12.2-56.5-23.8c-2.6-1.7-5.9-1.5-8.3,0.5l-32,26.5l-36.5-36.5   l26.5-32c2-2.4,2.1-5.8,0.4-8.3c-11.2-16.8-19.4-36.3-23.8-56.4c-0.6-3-3.1-5.2-6.2-5.5l-41.5-4v-51.9l41.5-4   c3-0.3,5.5-2.5,6.2-5.5c4.2-19.5,12.2-38.5,23.8-56.5c1.7-2.6,1.5-5.9-0.5-8.3l-26.5-32L125,87.3l32,26.5c2.4,2,5.8,2.1,8.3,0.4   c16.8-11.2,36.3-19.4,56.4-23.8c3-0.6,5.2-3.1,5.5-6.2l4-41.5h49.5l4,41.5c0.3,3,2.5,5.5,5.5,6.2c20.1,4.3,39.6,12.6,56.4,23.8   c2.6,1.7,6,1.5,8.3-0.4l32-26.5l36.5,36.5l-26.5,32c-1.9,2.4-2.1,5.7-0.5,8.3c11.6,18,19.6,37,23.8,56.5c0.6,3,3.1,5.2,6.2,5.5   l41.5,4L468.1,281.9L468.1,281.9z"/><path d="M256.9,119c-75.5,0-137,61.5-137,137s61.5,137,137,137s137-61.5,137-137S332.4,119,256.9,119z M183.4,354.6v-46.5   c0-12.7,10.3-23,23-23h12.7l12,46.2c0.7,2.7,3,4.7,5.7,5.2c2.8,0.4,5.5-0.9,7-3.3c0.1-0.1,0.2-0.3,0.2-0.4l12-23.2h0.3l13.1,23.4   c1.4,2.5,4.1,3.9,6.9,3.5c2.8-0.3,5.1-2.3,5.9-5l13.2-46.4h11.6c12.7,0,23,10.3,23,23v46.5c-20.5,15.3-45.9,24.4-73.4,24.4   C229.4,379,203.9,369.9,183.4,354.6z M254.2,286.2h4.2l-2.1,6.8L254.2,286.2z M344.3,342.4v-34.3c0-20.4-16.6-37-37-37h-16.9   c-3.1,0-5.9,2.1-6.7,5.1l-10,35.2l-5.4-9.7l6.4-20.4c0.7-2.1,0.3-4.4-1-6.2s-3.4-2.9-5.6-2.9h-23.3c-2.2,0-4.3,1.1-5.6,2.9   s-1.7,4.1-1,6.2l6.4,20.5l-4.3,8.3l-8.8-33.8c-0.8-3.1-3.6-5.2-6.8-5.2h-18.1c-20.4,0-37,16.6-37,37v34.3   c-22-22.2-35.6-52.8-35.6-86.4c0-67.8,55.2-123,123-123s123,55.2,123,123C379.9,289.6,366.3,320.2,344.3,342.4z"/><path d="M265.1,157.5h-39c-7.7,0-14,6.3-14,14v54.1c0,24,19.5,43.5,43.5,43.5s43.5-19.5,43.5-43.5v-34.1   C299.1,172.8,283.8,157.5,265.1,157.5z M284.8,187.9c-13.2,5.5-25.9,3.5-37.8-6c-4.2-3.4-7.7-7.1-10.2-10.4h28.4   C274.9,171.5,283,178.6,284.8,187.9z M226.1,204.2l0-23.5c3,3.7,6.9,8,11.7,11.8c0.5,0.4,1,0.7,1.4,1.1   C234,196.6,229.7,200.3,226.1,204.2z M255.6,255.1c-15,0-27.4-11.2-29.2-25.7c1.1-2.8,9.9-22.7,28.8-27c5,1.7,10.1,2.6,15.3,2.6   c4.9,0,9.8-0.8,14.7-2.3v22.9C285.1,241.9,271.9,255.1,255.6,255.1z"/></g></svg>