<svg xmlns="http://www.w3.org/2000/svg" xmlns:xlink="http://www.w3.org/1999/xlink" version="1.1" x="0px" y="0px" viewBox="0 0 66 82.5" enable-background="new 0 0 66 66" xml:space="preserve"><g><path d="M33.3,16.5c3.1,0,5.7-2.5,5.7-5.7c0-3.1-2.5-5.7-5.7-5.7s-5.7,2.5-5.7,5.7C27.6,14,30.2,16.5,33.3,16.5z M33.3,7.2   c2,0,3.7,1.6,3.7,3.7c0,2-1.6,3.7-3.7,3.7s-3.7-1.6-3.7-3.7C29.6,8.8,31.3,7.2,33.3,7.2z"/><path d="M15.8,40.2c-3.1,0-5.7,2.5-5.7,5.7c0,3.1,2.5,5.7,5.7,5.7s5.7-2.5,5.7-5.7C21.4,42.8,18.9,40.2,15.8,40.2z M15.8,49.6   c-2,0-3.7-1.6-3.7-3.7c0-2,1.6-3.7,3.7-3.7s3.7,1.6,3.7,3.7C19.4,47.9,17.8,49.6,15.8,49.6z"/><path d="M50.5,36.1c-4.3,0-8.2,1.9-10.9,5L34,35.4v-5.5c7.6-0.5,13.5-6.9,13.5-14.4C47.5,7.5,41,1,33,1c-8,0-14.5,6.5-14.5,14.5   c0,7.6,5.8,13.9,13.5,14.4v5.5L26.4,41c-2.7-3-6.5-5-10.9-5C7.5,36.1,1,42.6,1,50.5C1,58.5,7.5,65,15.5,65c8,0,14.5-6.5,14.5-14.5   c0-2.9-0.9-5.6-2.4-7.9l5.4-5.4l5.4,5.4c-1.5,2.3-2.4,5-2.4,7.9c0,8,6.5,14.5,14.5,14.5c8,0,14.5-6.5,14.5-14.5   C65,42.6,58.5,36.1,50.5,36.1z M7.9,60.4c0.8-3.5,3.9-6.2,7.6-6.2c3.7,0,6.9,2.6,7.6,6.2c-2.2,1.7-4.8,2.6-7.6,2.6   C12.7,63,10,62.1,7.9,60.4z M24.7,58.9c-1.3-3.9-5-6.6-9.3-6.6c-4.2,0-7.9,2.7-9.3,6.6C4.2,56.6,3,53.6,3,50.5   c0-6.9,5.6-12.5,12.5-12.5c6.9,0,12.5,5.6,12.5,12.5C28,53.6,26.8,56.6,24.7,58.9z M33,27.9c-2.8,0-5.4-0.9-7.6-2.6   c0.8-3.5,3.9-6.2,7.6-6.2c3.7,0,6.9,2.6,7.6,6.2C38.4,27,35.8,27.9,33,27.9z M20.5,15.5C20.5,8.6,26.1,3,33,3   c6.9,0,12.5,5.6,12.5,12.5c0,3.1-1.2,6.1-3.2,8.3c-1.3-3.9-5-6.6-9.3-6.6c-4.2,0-7.9,2.7-9.3,6.6C21.7,21.5,20.5,18.6,20.5,15.5z    M42.9,60.4c0.8-3.5,3.9-6.2,7.6-6.2c3.7,0,6.9,2.6,7.6,6.2C56,62.1,53.3,63,50.5,63C47.8,63,45.1,62.1,42.9,60.4z M59.8,58.9   c-1.3-3.9-5-6.6-9.3-6.6c-4.2,0-7.9,2.7-9.3,6.6c-2.1-2.3-3.2-5.2-3.2-8.3c0-6.9,5.6-12.5,12.5-12.5c6.9,0,12.5,5.6,12.5,12.5   C63,53.6,61.8,56.6,59.8,58.9z"/><path d="M50.8,40.2c-3.1,0-5.7,2.5-5.7,5.7c0,3.1,2.5,5.7,5.7,5.7c3.1,0,5.7-2.5,5.7-5.7C56.5,42.8,53.9,40.2,50.8,40.2z    M50.8,49.6c-2,0-3.7-1.6-3.7-3.7c0-2,1.6-3.7,3.7-3.7c2,0,3.7,1.6,3.7,3.7C54.5,47.9,52.8,49.6,50.8,49.6z"/></g><text x="0" y="81" fill="#000000" font-size="5px" font-weight="bold" font-family="'Helvetica Neue', Helvetica, Arial-Unicode, Arial, Sans-serif">Created by ProSymbols</text><text x="0" y="86" fill="#000000" font-size="5px" font-weight="bold" font-family="'Helvetica Neue', Helvetica, Arial-Unicode, Arial, Sans-serif">from the Noun Project</text></svg>