<svg width="0" height="0" viewBox="0 0 28 28" fill="none" xmlns="http://www.w3.org/2000/svg">
<g id="size=md (32px)">
<path id="Vector" d="M16 20C18.7614 20 21 17.7614 21 15C21 12.2386 18.7614 10 16 10C13.2386 10 11 12.2386 11 15C11 17.7614 13.2386 20 16 20ZM16 20C14.338 20 12.7085 20.4595 11.292 21.3289C9.87555 22.1984 8.72749 23.4431 7.9751 24.925M16 20C17.662 20 19.2917 20.4595 20.7082 21.3289C22.1246 22.1984 23.2727 23.4431 24.0251 24.925M28 16C28 22.6274 22.6274 28 16 28C9.37258 28 4 22.6274 4 16C4 9.37258 9.37258 4 16 4C22.6274 4 28 9.37258 28 16Z" stroke="#1E293B" stroke-width="2" stroke-linecap="round" stroke-linejoin="round"/>
</g>
</svg>
