<svg width="32" height="32" viewBox="0 0 32 32" fill="none" xmlns="http://www.w3.org/2000/svg">
<path d="M13 22C15.2091 22 17 20.2091 17 18C17 15.7909 15.2091 14 13 14C10.7909 14 9 15.7909 9 18C9 20.2091 10.7909 22 13 22ZM13 22C11.6752 22 10.3775 22.375 9.2579 23.0833C8.13827 23.7915 7.24261 24.8029 6.675 26H5C4.73478 26 4.48043 25.8946 4.29289 25.7071C4.10536 25.5196 4 25.2652 4 25V7C4 6.73478 4.10536 6.48043 4.29289 6.29289C4.48043 6.10536 4.73478 6 5 6H27C27.2652 6 27.5196 6.10536 27.7071 6.29289C27.8946 6.48043 28 6.73478 28 7V25C28 25.2652 27.8946 25.5196 27.7071 25.7071C27.5196 25.8946 27.2652 26 27 26H19.325C18.7574 24.8029 17.8617 23.7915 16.7421 23.0833C15.6225 22.375 14.3248 22 13 22ZM22 22H24V10H8V12" stroke="#0580ED" stroke-width="2" stroke-linecap="round" stroke-linejoin="round"/>
</svg>
